<?xml version="1.0" encoding="UTF-8"?>
<svg xmlns="http://www.w3.org/2000/svg" xmlns:xlink="http://www.w3.org/1999/xlink" width="24px" height="24px" viewBox="0 0 24 24" version="1.1">
<g id="surface1">
<path style=" stroke:none;fill-rule:nonzero;fill:rgb(100%,100%,100%);fill-opacity:1;" d="M 23.300781 12 C 23.300781 18.242188 18.242188 23.300781 12 23.300781 C 5.757812 23.300781 0.699219 18.242188 0.699219 12 C 0.699219 5.757812 5.757812 0.699219 12 0.699219 C 18.242188 0.699219 23.300781 5.757812 23.300781 12 Z M 23.300781 12 "/>
<path style=" stroke:none;fill-rule:nonzero;fill:rgb(86.27451%,11.764706%,21.960784%);fill-opacity:1;" d="M 10.5 4.898438 L 13.101562 4.898438 L 13.101562 6 L 10.5 6 Z M 13.101562 11.5 L 13.898438 10.601562 C 13.898438 10.5 14.101562 10.398438 13.898438 10.300781 C 13.699219 10.199219 13.898438 10.199219 13.601562 10.199219 C 13.300781 10.199219 12.898438 10.699219 12.699219 10.199219 C 12.398438 9.800781 11.800781 9.699219 11.5 10 C 11.398438 10 11.398438 10.101562 11.300781 10.199219 C 10.898438 10.601562 10.601562 10.199219 10.300781 10.199219 C 10.199219 10.199219 10.101562 10.300781 10.101562 10.398438 C 10.101562 10.398438 10.101562 10.398438 10.101562 10.5 C 10.101562 10.601562 10.101562 10.699219 10.199219 10.699219 L 11 11.601562 C 8.101562 13.398438 8.898438 18.300781 9 18.5 C 9 18.601562 9.199219 18.699219 9.300781 18.699219 L 15 18.699219 C 15.199219 18.699219 15.300781 18.601562 15.300781 18.398438 C 15.601562 13.601562 14.199219 12.199219 13.101562 11.5 Z M 24 12 C 24 18.601562 18.601562 24 12 24 C 5.398438 24 0 18.601562 0 12 C 0 5.398438 5.398438 0 12 0 C 18.601562 0 24 5.398438 24 12 Z M 6 6.398438 C 6 6.601562 6.101562 6.800781 6.300781 6.800781 L 17.5 6.800781 C 17.699219 6.800781 17.898438 6.601562 17.898438 6.398438 C 17.898438 6.199219 17.800781 6 17.601562 6 L 13.898438 6 L 13.898438 4.5 C 13.898438 4.300781 13.800781 4.101562 13.601562 4.101562 L 10.101562 4.101562 C 9.898438 4.101562 9.800781 4.300781 9.800781 4.5 L 9.800781 6 L 6.300781 6 C 6.101562 6 6 6.199219 6 6.398438 Z M 18.199219 7.898438 C 18.199219 7.800781 18.199219 7.699219 18.101562 7.699219 C 18.101562 7.601562 18 7.601562 17.898438 7.601562 L 6.199219 7.601562 C 6.101562 7.601562 6.101562 7.601562 6 7.699219 C 5.898438 7.699219 5.898438 7.699219 5.898438 7.800781 L 7.699219 19.5 C 7.699219 19.699219 7.800781 19.800781 8 19.800781 L 16 19.800781 C 16.199219 19.800781 16.300781 19.699219 16.300781 19.5 Z M 18.199219 7.898438 "/>
</g>
</svg>
